<svg xmlns="http://www.w3.org/2000/svg" xmlns:xlink="http://www.w3.org/1999/xlink" viewBox="0 0 1920 1080"><defs><style>.cls-1{fill:url(#Dégradé_sans_nom_24);}.cls-2{opacity:0.3;}.cls-3{fill:url(#Dégradé_sans_nom_24-2);}.cls-4{fill:url(#Dégradé_sans_nom_24-3);}.cls-5{fill:url(#Dégradé_sans_nom_24-4);}.cls-6{fill:url(#Dégradé_sans_nom_24-5);}.cls-7{fill:url(#Dégradé_sans_nom_24-6);}.cls-8{fill:url(#Dégradé_sans_nom_24-7);}.cls-9{fill:url(#Dégradé_sans_nom_24-8);}.cls-10{fill:url(#Dégradé_sans_nom_24-9);}.cls-11{fill:url(#Dégradé_sans_nom_24-10);}.cls-12{fill:url(#Dégradé_sans_nom_24-11);}.cls-13{fill:url(#Dégradé_sans_nom_24-12);}.cls-14{fill:url(#Dégradé_sans_nom_24-13);}.cls-15{fill:url(#Dégradé_sans_nom_24-14);}.cls-16{fill:url(#Dégradé_sans_nom_24-15);}.cls-17{fill:url(#Dégradé_sans_nom_24-16);}.cls-18{fill:url(#Dégradé_sans_nom_24-17);}.cls-19{fill:url(#Dégradé_sans_nom_24-18);}.cls-20{fill:url(#Dégradé_sans_nom_24-19);}.cls-21{fill:url(#Dégradé_sans_nom_24-20);}.cls-22{fill:url(#Dégradé_sans_nom_24-21);}.cls-23{fill:url(#Dégradé_sans_nom_24-22);}.cls-24{fill:url(#Dégradé_sans_nom_24-23);}.cls-25{fill:url(#Dégradé_sans_nom_24-24);}.cls-26{fill:url(#Dégradé_sans_nom_24-25);}.cls-27{fill:url(#Dégradé_sans_nom_24-26);}.cls-28{fill:url(#Dégradé_sans_nom_24-27);}.cls-29{fill:url(#Dégradé_sans_nom_24-28);}.cls-30{fill:url(#Dégradé_sans_nom_24-29);}.cls-31{fill:url(#Dégradé_sans_nom_24-30);}.cls-32{fill:url(#Dégradé_sans_nom_24-31);}.cls-33{fill:url(#Dégradé_sans_nom_24-32);}.cls-34{fill:url(#Dégradé_sans_nom_24-33);}.cls-35{fill:url(#Dégradé_sans_nom_24-34);}.cls-36{fill:url(#Dégradé_sans_nom_24-35);}.cls-37{fill:url(#Dégradé_sans_nom_24-36);}.cls-38{fill:url(#Dégradé_sans_nom_24-37);}.cls-39{fill:url(#Dégradé_sans_nom_24-38);}.cls-40{fill:url(#Dégradé_sans_nom_24-39);}.cls-41{fill:url(#Dégradé_sans_nom_24-40);}.cls-42{fill:url(#Dégradé_sans_nom_24-41);}.cls-43{fill:url(#Dégradé_sans_nom_24-42);}.cls-44{fill:url(#Dégradé_sans_nom_24-43);}.cls-45{fill:url(#Dégradé_sans_nom_24-44);}.cls-46{fill:url(#Dégradé_sans_nom_24-45);}</style><linearGradient id="Dégradé_sans_nom_24" y1="537.5" x2="1920" y2="537.5" gradientUnits="userSpaceOnUse"><stop offset="0" stop-color="#fff"/><stop offset="0.45" stop-color="#fafafa"/><stop offset="0.95" stop-color="#ededed"/><stop offset="1" stop-color="#ebebeb"/></linearGradient><linearGradient id="Dégradé_sans_nom_24-2" x1="1825" y1="1010" y2="1010" xlink:href="#Dégradé_sans_nom_24"/><linearGradient id="Dégradé_sans_nom_24-3" x1="1421" y1="785" y2="785" xlink:href="#Dégradé_sans_nom_24"/><linearGradient id="Dégradé_sans_nom_24-4" x1="1421" y1="530.44" y2="530.44" xlink:href="#Dégradé_sans_nom_24"/><linearGradient id="Dégradé_sans_nom_24-5" x1="1798.21" y1="376.5" y2="376.5" xlink:href="#Dégradé_sans_nom_24"/><linearGradient id="Dégradé_sans_nom_24-6" x1="1804.6" y1="191.93" y2="191.93" xlink:href="#Dégradé_sans_nom_24"/><linearGradient id="Dégradé_sans_nom_24-7" x1="1340" y1="1003.5" y2="1003.5" xlink:href="#Dégradé_sans_nom_24"/><linearGradient id="Dégradé_sans_nom_24-8" x1="1340" y1="803" y2="803" xlink:href="#Dégradé_sans_nom_24"/><linearGradient id="Dégradé_sans_nom_24-9" x1="1469" y1="194.16" x2="1880" y2="194.16" xlink:href="#Dégradé_sans_nom_24"/><linearGradient id="Dégradé_sans_nom_24-10" x1="1458" y1="58.5" x2="1880" y2="58.5" xlink:href="#Dégradé_sans_nom_24"/><linearGradient id="Dégradé_sans_nom_24-11" x1="1326" y1="254.58" x2="1798.54" y2="254.58" xlink:href="#Dégradé_sans_nom_24"/><linearGradient id="Dégradé_sans_nom_24-12" x1="1421" y1="529.01" x2="1793.33" y2="529.01" xlink:href="#Dégradé_sans_nom_24"/><linearGradient id="Dégradé_sans_nom_24-13" x1="1326" y1="359" x2="1792.65" y2="359" xlink:href="#Dégradé_sans_nom_24"/><linearGradient id="Dégradé_sans_nom_24-14" x1="1326" y1="484.5" x2="1521" y2="484.5" xlink:href="#Dégradé_sans_nom_24"/><linearGradient id="Dégradé_sans_nom_24-15" x1="1263" y1="1003.5" x2="1503" y2="1003.5" xlink:href="#Dégradé_sans_nom_24"/><linearGradient id="Dégradé_sans_nom_24-16" x1="978" y1="87" x2="1469" y2="87" xlink:href="#Dégradé_sans_nom_24"/><linearGradient id="Dégradé_sans_nom_24-17" x1="978" y1="210" x2="1469" y2="210" xlink:href="#Dégradé_sans_nom_24"/><linearGradient id="Dégradé_sans_nom_24-18" x1="978" y1="87" x2="1458" y2="87" xlink:href="#Dégradé_sans_nom_24"/><linearGradient id="Dégradé_sans_nom_24-19" x1="922" y1="484.5" x2="1421" y2="484.5" xlink:href="#Dégradé_sans_nom_24"/><linearGradient id="Dégradé_sans_nom_24-20" x1="1140" y1="796.5" x2="1421" y2="796.5" xlink:href="#Dégradé_sans_nom_24"/><linearGradient id="Dégradé_sans_nom_24-21" x1="922" y1="720.5" x2="1421" y2="720.5" xlink:href="#Dégradé_sans_nom_24"/><linearGradient id="Dégradé_sans_nom_24-22" x1="1014" y1="973.5" x2="1340" y2="973.5" xlink:href="#Dégradé_sans_nom_24"/><linearGradient id="Dégradé_sans_nom_24-23" x1="835.42" y1="438.5" x2="1326" y2="438.5" xlink:href="#Dégradé_sans_nom_24"/><linearGradient id="Dégradé_sans_nom_24-24" x1="807.3" y1="267.35" x2="1326" y2="267.35" xlink:href="#Dégradé_sans_nom_24"/><linearGradient id="Dégradé_sans_nom_24-25" x1="628" y1="720.5" x2="1140" y2="720.5" xlink:href="#Dégradé_sans_nom_24"/><linearGradient id="Dégradé_sans_nom_24-26" x1="646.23" y1="973.5" x2="1140" y2="973.5" xlink:href="#Dégradé_sans_nom_24"/><linearGradient id="Dégradé_sans_nom_24-27" x1="485" y1="841" x2="1140" y2="841" xlink:href="#Dégradé_sans_nom_24"/><linearGradient id="Dégradé_sans_nom_24-28" x1="739.77" y1="87" x2="1068" y2="87" xlink:href="#Dégradé_sans_nom_24"/><linearGradient id="Dégradé_sans_nom_24-29" x1="758.13" y1="230.87" x2="978" y2="230.87" xlink:href="#Dégradé_sans_nom_24"/><linearGradient id="Dégradé_sans_nom_24-30" x1="681.97" y1="467.35" x2="922" y2="467.35" xlink:href="#Dégradé_sans_nom_24"/><linearGradient id="Dégradé_sans_nom_24-31" x1="628" y1="490.5" x2="922" y2="490.5" xlink:href="#Dégradé_sans_nom_24"/><linearGradient id="Dégradé_sans_nom_24-32" x1="298" y1="85.16" x2="910" y2="85.16" xlink:href="#Dégradé_sans_nom_24"/><linearGradient id="Dégradé_sans_nom_24-33" x1="680" y1="335.22" x2="835.42" y2="335.22" xlink:href="#Dégradé_sans_nom_24"/><linearGradient id="Dégradé_sans_nom_24-34" x1="680" y1="274" x2="807.3" y2="274" xlink:href="#Dégradé_sans_nom_24"/><linearGradient id="Dégradé_sans_nom_24-35" x1="291.36" y1="729.39" x2="682" y2="729.39" xlink:href="#Dégradé_sans_nom_24"/><linearGradient id="Dégradé_sans_nom_24-36" x1="270.08" y1="294.95" x2="680" y2="294.95" xlink:href="#Dégradé_sans_nom_24"/><linearGradient id="Dégradé_sans_nom_24-37" x1="169" y1="173.85" x2="680" y2="173.85" xlink:href="#Dégradé_sans_nom_24"/><linearGradient id="Dégradé_sans_nom_24-38" x1="40" y1="764" x2="482.97" y2="764" xlink:href="#Dégradé_sans_nom_24"/><linearGradient id="Dégradé_sans_nom_24-39" y1="764" x2="480.13" y2="764" xlink:href="#Dégradé_sans_nom_24"/><linearGradient id="Dégradé_sans_nom_24-40" x1="289" y1="809.21" x2="477.71" y2="809.21" xlink:href="#Dégradé_sans_nom_24"/><linearGradient id="Dégradé_sans_nom_24-41" x1="40" y1="507.45" x2="330.78" y2="507.45" xlink:href="#Dégradé_sans_nom_24"/><linearGradient id="Dégradé_sans_nom_24-42" y1="995.5" x2="325" y2="995.5" xlink:href="#Dégradé_sans_nom_24"/><linearGradient id="Dégradé_sans_nom_24-43" x1="40" y1="397.85" x2="291.36" y2="397.85" xlink:href="#Dégradé_sans_nom_24"/><linearGradient id="Dégradé_sans_nom_24-44" x1="40" y1="224" x2="270.08" y2="224" xlink:href="#Dégradé_sans_nom_24"/><linearGradient id="Dégradé_sans_nom_24-45" x1="74.32" y1="224" x2="1522.83" y2="224" xlink:href="#Dégradé_sans_nom_24"/></defs><title>wall-courbe-paton-sans-white-30</title><g id="Calque_2" data-name="Calque 2"><rect class="cls-1" width="1920" height="1075"/></g><g id="Calque_3" data-name="Calque 3" class="cls-2"><polygon class="cls-3" points="1920 940 1920 1080 1825 1080 1920 940"/><polygon class="cls-4" points="1920 630 1920 940 1421 666 1920 630"/><polygon class="cls-5" points="1920 454 1920 630 1421 666 1801.77 394.88 1920 454"/><polygon class="cls-6" points="1920 299 1920 454 1801.77 394.88 1803 394 1798.21 393.09 1801.36 390.65 1803 392 1803.61 388.91 1920 299"/><polygon class="cls-7" points="1920 0 1920 299 1804.6 383.87 1880 0 1920 0"/><polygon class="cls-8" points="1920 940 1825 1080 1503 1080 1340 927 1920 940"/><polygon class="cls-9" points="1920 940 1340 927 1421 666 1920 940"/><polygon class="cls-10" points="1880 0 1804.6 383.87 1804.6 383.88 1798.54 388.33 1469 117 1880 0"/><polygon class="cls-11" points="1880 0 1469 117 1458 0 1880 0"/><polygon class="cls-12" points="1792.65 392.03 1326 303 1469 117 1798.54 388.33 1793.34 392.16 1793.33 392.16 1792.65 392.03"/><polygon class="cls-13" points="1793.33 392.16 1421 666 1521 415 1792.65 392.03 1793.33 392.16"/><polygon class="cls-14" points="1792.65 392.03 1521 415 1326 303 1792.65 392.03"/><polygon class="cls-15" points="1521 415 1421 666 1326 303 1521 415"/><polygon class="cls-16" points="1503 1080 1263 1080 1340 927 1503 1080"/><polygon class="cls-17" points="1458 0 1469 117 978 174 1458 0"/><polygon class="cls-18" points="1469 117 1326 303 978 174 1469 117"/><polygon class="cls-19" points="1458 0 978 174 1068 0 1458 0"/><polygon class="cls-20" points="1326 303 1421 666 922 574 1326 303"/><polygon class="cls-21" points="1421 666 1340 927 1140 867 1421 666"/><polygon class="cls-22" points="1421 666 1140 867 922 574 1421 666"/><polygon class="cls-23" points="1340 927 1263 1080 1014 1080 1140 867 1340 927"/><polygon class="cls-24" points="1326 303 922 574 835.42 360.71 1326 303"/><polygon class="cls-25" points="1326 303 835.42 360.71 807.3 291.43 978 174 1326 303"/><polygon class="cls-26" points="922 574 1140 867 628 602 922 574"/><polygon class="cls-27" points="1140 867 1014 1080 646.23 1080 1140 867"/><polygon class="cls-28" points="1140 867 646.23 1080 485 1080 628 602 1140 867"/><polygon class="cls-29" points="1068 0 978 174 758.13 170.31 739.77 125.08 910 0 1068 0"/><polygon class="cls-30" points="978 174 807.3 291.43 758.13 170.31 978 174"/><polygon class="cls-31" points="835.42 360.71 922 574 682 379 681.97 378.77 835.42 360.71"/><polygon class="cls-32" points="922 574 628 602 682 379 922 574"/><polygon class="cls-33" points="910 0 739.77 125.08 758.13 170.31 680 169 298 0 910 0"/><polygon class="cls-34" points="807.3 291.43 835.42 360.71 681.97 378.77 680 379 807.3 291.43"/><polygon class="cls-35" points="758.13 170.31 807.3 291.43 680 379 680 169 758.13 170.31"/><polygon class="cls-36" points="681.97 378.77 682 379 628 602 485 1080 477.71 1061.93 477.71 1061.92 330.78 556.5 291.36 420.9 680 379 681.97 378.77"/><polygon class="cls-37" points="680 169 680 379 291.36 420.9 270.08 347.7 680 169"/><polygon class="cls-38" points="680 169 270.08 347.7 169 0 298 0 680 169"/><polygon class="cls-39" points="477.71 1061.93 482.97 1080 480.13 1080 40 448 289 594 477.71 1061.92 477.71 1061.93"/><polygon class="cls-40" points="40 448 480.13 1080 325 1080 0 911 0 448 40 448"/><polygon class="cls-41" points="330.78 556.5 477.71 1061.92 289 594 330.78 556.5"/><polygon class="cls-42" points="291.36 420.9 330.78 556.5 289 594 40 448 291.36 420.9"/><polygon class="cls-43" points="325 1080 0 1080 0 911 325 1080"/><polygon class="cls-44" points="270.08 347.7 291.36 420.9 40 448 270.08 347.7"/><polygon class="cls-45" points="169 0 270.08 347.7 40 448 169 0"/><polygon class="cls-46" points="169 0 40 448 0 448 0 0 169 0"/></g></svg>