<svg id="Calque_2" data-name="Calque 2" xmlns="http://www.w3.org/2000/svg" viewBox="0 0 916.1 916"><defs><style>.cls-1{fill:#11b8ef;}.cls-2{fill:#11a0ef;}.cls-3{fill:#2dce89;}.cls-4{fill:#118cef;}</style></defs><title>logo-open2</title><path class="cls-1" d="M216.85,129.83a61.82,61.82,0,0,1,8.71.6h.11l1,.15a61.39,61.39,0,0,1,15.7,4.71c4.27,2,22.68,14.83,34.81,41.4,7.69,16.83,11.34,25.28,10.16,33.31-2.87,19.67-32.26,43.43-64.45,43.43-1.35,0-2.72,0-4.05-.13-17.32-1.12-32.74-9.82-45.83-25.85a113.22,113.22,0,0,1-17.56-30.32c-.13-1.39-.21-2.76-.25-4.09,0-.51,0-1,0-1.52a62.63,62.63,0,0,1,.61-8.71,61.09,61.09,0,0,1,4.49-15.89l.38-.87a61.67,61.67,0,0,1,37.8-33.44l.62-.18a61.66,61.66,0,0,1,17.81-2.61m0-30a91.68,91.68,0,0,0-26.46,3.88h0a92,92,0,0,0-57.63,51.19s0,0,0,0a90.82,90.82,0,0,0-6.7,23.71,94.22,94.22,0,0,0-.9,12.88c0,.7,0,1.4,0,2.1a93.83,93.83,0,0,0,.7,9.4c.5,4,25.7,76,91,80.22q3,.19,6,.19c45.42,0,88.86-32.92,94.14-69.1,2.5-17.13-4.06-31.5-12.56-50.1-15.79-34.58-40.28-52-49.68-56.24a91.1,91.1,0,0,0-23.38-7l-1.61-.25a93,93,0,0,0-12.9-.89Z" transform="translate(0 0)"/><path class="cls-2" d="M218.85,301.89v30a106.62,106.62,0,0,1,23.46,2.8A88.26,88.26,0,0,1,284.68,359,693.59,693.59,0,0,0,282,699.49C216.12,638.64,190.61,562,187.4,551.67c-13.2-42.39-19.83-95.07-17.32-137.49,1.29-21.93,5-41,10.66-55,3.37-8.35,9.19-19.21,17.8-23.57,4.78-2.42,11.8-3.7,20.31-3.7v-30m0,0c-11.07,0-23.35,1.62-33.85,6.93-57.15,28.92-53.75,163.39-26.25,251.77,4.24,13.63,44.62,137.07,161.11,203.79,6.84,3.92,12.66,6.91,16.65,8.88a664.07,664.07,0,0,1-18.73-421.62c-6.56-8.87-28.87-36.72-68.54-46.14a136.94,136.94,0,0,0-30.39-3.61Z" transform="translate(0 0)"/><path class="cls-3" d="M109.07,191.1c.09.15.17.3.26.44h0l-.27-.43Z" transform="translate(0 0)"/><path class="cls-4" d="M347.41,417.51c3.89,4,8.21,8.31,13,12.85a401.87,401.87,0,0,0,39.18,32.37c-33.86-6.58-50.81-14.81-57.18-19.37,1.19-6.53,3.08-16.21,5-25.85M333.92,365a7,7,0,0,0-2.45.44c-4.22,1.55-5.75,6.55-13.21,44.76-4.86,24.88-7.28,37.35-6.93,39.22,4.23,22.37,47.52,36.93,92.72,44.57a485.23,485.23,0,0,0,53.5,6,485.23,485.23,0,0,0,53.5-6c-.62-3.46-13.62-5.9-46.76-25.35q-3.18-1.86-6.74-4c-19.92-11.81-48.14-29.44-76.54-56.18C354.24,383.32,343.22,365,333.92,365Z" transform="translate(0 0)"/><path class="cls-1" d="M698.25,129.83a61.66,61.66,0,0,1,17.81,2.61l.58.17a61.67,61.67,0,0,1,37.84,33.45l.38.87a61.25,61.25,0,0,1,4.49,15.85,65.24,65.24,0,0,1,.61,8.75c0,.51,0,1,0,1.52,0,1.33-.12,2.7-.25,4.09a113.22,113.22,0,0,1-17.56,30.32c-13.09,16-28.51,24.73-45.83,25.85-1.33.09-2.7.13-4,.13-32.19,0-61.58-23.76-64.45-43.43-1.18-8,2.47-16.48,10.16-33.31,12.13-26.57,30.54-39.41,34.8-41.39a61.25,61.25,0,0,1,15.7-4.72l.95-.15h.12a61.82,61.82,0,0,1,8.71-.6m0-30a92.84,92.84,0,0,0-12.9.89l-1.62.25a91,91,0,0,0-23.37,7c-9.4,4.26-33.89,21.66-49.68,56.24-8.5,18.6-15.06,33-12.56,50.1,5.28,36.18,48.72,69.1,94.14,69.1q3,0,6-.19c65.28-4.23,90.49-76.19,91-80.22a93.83,93.83,0,0,0,.7-9.4c0-.7,0-1.4,0-2.1a94.22,94.22,0,0,0-.9-12.88,91.21,91.21,0,0,0-6.7-23.71s0,0,0,0a92,92,0,0,0-57.63-51.19h0a91.73,91.73,0,0,0-26.46-3.88Z" transform="translate(0 0)"/><path class="cls-2" d="M696.25,331.89c8.51,0,15.53,1.28,20.31,3.7,8.61,4.36,14.43,15.22,17.8,23.57,5.68,14.06,9.36,33.09,10.66,55,2.51,42.42-4.12,95.1-17.32,137.49-3.21,10.34-28.72,87-94.61,147.82a691.92,691.92,0,0,0,16.67-98.06A694.62,694.62,0,0,0,630.41,359a88.3,88.3,0,0,1,42.38-24.31,106.62,106.62,0,0,1,23.46-2.8m0-30a136.85,136.85,0,0,0-30.39,3.61c-39.67,9.42-62,37.27-68.54,46.14a668.41,668.41,0,0,1,22.58,246.9,664.92,664.92,0,0,1-41.31,174.72c4-2,9.8-5,16.65-8.88,116.49-66.72,156.87-190.16,161.11-203.79,27.5-88.38,30.9-222.85-26.25-251.77-10.5-5.31-22.79-6.93-33.85-6.93Z" transform="translate(0 0)"/><path class="cls-3" d="M806,191.1l-.27.43h0c.09-.14.17-.29.26-.44Z" transform="translate(0 0)"/><path class="cls-4" d="M567.69,417.51c1.89,9.64,3.78,19.32,5,25.85-6.37,4.56-23.32,12.79-57.18,19.37a401.81,401.81,0,0,0,39.17-32.37c4.83-4.54,9.15-8.84,13-12.85M581.18,365c-9.3,0-20.32,18.29-47.09,43.49-28.4,26.74-56.62,44.37-76.54,56.18q-3.56,2.12-6.74,4c-33.16,19.47-46.17,21.88-46.76,25.35a485.23,485.23,0,0,0,53.5,6,485.23,485.23,0,0,0,53.5-6c45.2-7.64,88.49-22.2,92.72-44.57.35-1.87-2.07-14.34-6.93-39.22-7.46-38.21-9-43.21-13.21-44.76a7,7,0,0,0-2.45-.44Z" transform="translate(0 0)"/><path class="cls-2" d="M107.87,458c0-53.72,15.79-104.27,15.79-104.27a348.63,348.63,0,0,1,24.8-59.49A132.68,132.68,0,0,1,112,252.38c-17.42-31.55-17-61.7-16-74.52a455.55,455.55,0,0,0-75.32,144S0,388.86,0,458C0,711,205.05,916,458,916V808.13C264.63,808.13,107.87,651.37,107.87,458ZM320.74,20.92c-9.89,3.1-18.79,6.27-26.53,9.23-5.15,2-12.92,4.94-19.48,8a151.84,151.84,0,0,0-37.16,24.8,125.34,125.34,0,0,1,86.81,73,130.59,130.59,0,0,1,19-8.89c3.36-1.26,6.61-2.31,9.71-3.2,0,0,50.74-16,104.93-16V0C387.14,0,320.74,20.92,320.74,20.92Z" transform="translate(0 0)"/><path class="cls-2" d="M458.1,808.13V916c252.95,0,458-205,458-458,0-69.14-20.59-136.18-20.59-136.18a455.55,455.55,0,0,0-75.32-144c.94,12.82,1.37,43-16.05,74.52a132.68,132.68,0,0,1-36.5,41.86,348.63,348.63,0,0,1,24.8,59.49S808.23,404.28,808.23,458C808.23,651.37,651.47,808.13,458.1,808.13ZM458.1,0V107.87c54.19,0,104.93,16,104.93,16,3.1.89,6.35,1.94,9.71,3.2a130.59,130.59,0,0,1,19,8.89,125.34,125.34,0,0,1,86.81-73,151.84,151.84,0,0,0-37.16-24.8c-6.56-3-14.33-6-19.48-8-7.74-3-16.64-6.13-26.53-9.23C595.36,20.92,529,0,458.1,0Z" transform="translate(0 0)"/></svg>