<?xml version="1.0" encoding="utf-8"?>
<!-- Generator: Adobe Illustrator 19.0.0, SVG Export Plug-In . SVG Version: 6.00 Build 0)  -->
<svg version="1.1" id="Layer_1" xmlns="http://www.w3.org/2000/svg" xmlns:xlink="http://www.w3.org/1999/xlink" x="0px" y="0px"
	 viewBox="-433 221 91.5 120" style="enable-background:new -433 221 91.5 120;" xml:space="preserve">
<path style="fill:#009BE8;" d="M-341.5,266.8c0-25.3-20.5-45.8-45.7-45.8c-25.3,0-45.8,20.5-45.8,45.8c0,0.9,0,1.9,0.1,2.8h-0.1
	c0,0,2,43,45.8,71.4c43.8-28.5,45.8-71.4,45.8-71.4h-0.1C-341.5,268.6-341.5,267.7-341.5,266.8z"/>
<path style="fill:#FFFFFF;" d="M-387.2,293.9c-15,0-27.1-12.2-27.1-27.1c0-15,12.2-27.1,27.1-27.1c15,0,27.1,12.2,27.1,27.1
	C-360.1,281.7-372.3,293.9-387.2,293.9z"/>
</svg>
